<svg width="17" height="17" viewBox="0 0 17 17" fill="none" xmlns="http://www.w3.org/2000/svg">
<path fill-rule="evenodd" clip-rule="evenodd" d="M8.00123 2.5938C6.30385 2.59512 4.6765 3.27066 3.4772 4.47182C2.27789 5.67298 1.60487 7.30136 1.60618 8.99875C1.60683 9.83921 1.77301 10.6713 2.09524 11.4475C2.41747 12.2238 2.88944 12.9289 3.48419 13.5228C4.07895 14.1166 4.78484 14.5875 5.56157 14.9085C6.3383 15.2296 7.17066 15.3944 8.01112 15.3938C8.85158 15.3932 9.68368 15.227 10.4599 14.9047C11.2362 14.5825 11.9413 14.1105 12.5352 13.5158C13.129 12.921 13.5999 12.2151 13.9209 11.4384C14.2419 10.6617 14.4068 9.82932 14.4062 8.98886C14.4049 7.29147 13.7293 5.66413 12.5282 4.46482C11.327 3.26552 9.69862 2.59249 8.00123 2.5938ZM2.34496 3.34132C3.84409 1.83987 5.87827 0.995444 8 0.993804C10.1217 0.992165 12.1572 1.83345 13.6587 3.33258C15.1601 4.83171 16.0045 6.86589 16.0062 8.98762C16.007 10.0382 15.8009 11.0786 15.3996 12.0496C14.9983 13.0205 14.4097 13.9028 13.6674 14.6463C12.9251 15.3897 12.0437 15.9797 11.0734 16.3825C10.1031 16.7853 9.06293 16.993 8.01236 16.9938C6.96178 16.9946 5.92134 16.7885 4.95042 16.3872C3.97951 15.9859 3.09714 15.3973 2.3537 14.655C1.61025 13.9127 1.0203 13.0313 0.617509 12.061C0.214722 11.0907 0.00699197 10.0506 0.00618035 8.99998C0.00454127 6.87825 0.845824 4.84277 2.34496 3.34132ZM5.83882 6.82979C6.151 6.51713 6.65753 6.51674 6.97019 6.82892L8.0053 7.86243L9.03882 6.82732C9.351 6.51466 9.85753 6.51427 10.1702 6.82644C10.4829 7.13862 10.4832 7.64515 10.1711 7.95781L9.13755 8.99293L10.1727 10.0264C10.4853 10.3386 10.4857 10.8452 10.1735 11.1578C9.86136 11.4705 9.35483 11.4709 9.04217 11.1587L8.00705 10.1252L6.97354 11.1603C6.66136 11.4729 6.15483 11.4733 5.84217 11.1612C5.52951 10.849 5.52911 10.3425 5.84129 10.0298L6.87481 8.99468L5.83969 7.96116C5.52703 7.64898 5.52664 7.14245 5.83882 6.82979Z" fill="#1C3144"/>
</svg>
